<svg xmlns="http://www.w3.org/2000/svg" width="450px" height="260px">
	<rect x="50" y="20" rx="10" ry="10" width="350" height="200" style="fill:#ffffff;stroke:gray;stroke-width:2;fill-opacity:0.1;
 stroke-opacity:0.9"/>
	<rect x="120" y="20" rx="10" ry="10" width="210" height="90" style="fill:#ffffff;stroke:gray;stroke-width:2;fill-opacity:0.1;
 stroke-opacity:0.9"/>
 	<text x="150px" y="60px"  font-size="26px" font-weight="bold" style="fill:gray;">witful.date</text>
	<text x="150px" y="90px" font-size="17px" font-weight="bold" style="fill:gray">Travel,life,witful!</text>
	<svg width="90px" height="90px" x="70px" y="120px" viewBox="-4.2 -4.2 29.4 29.4" fill="white" xmlns="http://www.w3.org/2000/svg" xmlns:xlink="http://www.w3.org/1999/xlink"><rect width="1" height="1" fill="#000000" x="0" y="0"></rect><rect width="1" height="1" fill="#000000" x="0" y="1"></rect><rect width="1" height="1" fill="#000000" x="0" y="2"></rect><rect width="1" height="1" fill="#000000" x="0" y="3"></rect><rect width="1" height="1" fill="#000000" x="0" y="4"></rect><rect width="1" height="1" fill="#000000" x="0" y="5"></rect><rect width="1" height="1" fill="#000000" x="0" y="6"></rect><rect opacity="1" width="1" height="1" fill="#000000" x="0" y="11"></rect><rect opacity="1" width="1" height="1" fill="#000000" x="0" y="12"></rect><rect width="1" height="1" fill="#000000" x="0" y="14"></rect><rect width="1" height="1" fill="#000000" x="0" y="15"></rect><rect width="1" height="1" fill="#000000" x="0" y="16"></rect><rect width="1" height="1" fill="#000000" x="0" y="17"></rect><rect width="1" height="1" fill="#000000" x="0" y="18"></rect><rect width="1" height="1" fill="#000000" x="0" y="19"></rect><rect width="1" height="1" fill="#000000" x="0" y="20"></rect><rect width="1" height="1" fill="#000000" x="1" y="0"></rect><rect width="1" height="1" fill="#000000" x="1" y="6"></rect><rect width="1" height="1" fill="#000000" x="1" y="9" opacity="1"></rect><rect width="1" height="1" fill="#000000" x="1" y="10" opacity="1"></rect><rect opacity="1" width="1" height="1" fill="#000000" x="1" y="11"></rect><rect opacity="1" width="1" height="1" fill="#000000" x="1" y="12"></rect><rect width="1" height="1" fill="#000000" x="1" y="14"></rect><rect width="1" height="1" fill="#000000" x="1" y="20"></rect><rect width="1" height="1" fill="#000000" x="2" y="0"></rect><rect width="1" height="1" fill="#000000" x="2" y="2"></rect><rect width="1" height="1" fill="#000000" x="2" y="3"></rect><rect width="1" height="1" fill="#000000" x="2" y="4"></rect><rect width="1" height="1" fill="#000000" x="2" y="6"></rect><rect width="1" height="1" fill="#000000" x="2" y="9" opacity="1"></rect><rect width="1" height="1" fill="#000000" x="2" y="14"></rect><rect width="1" height="1" fill="#000000" x="2" y="16"></rect><rect width="1" height="1" fill="#000000" x="2" y="17"></rect><rect width="1" height="1" fill="#000000" x="2" y="18"></rect><rect width="1" height="1" fill="#000000" x="2" y="20"></rect><rect width="1" height="1" fill="#000000" x="3" y="0"></rect><rect width="1" height="1" fill="#000000" x="3" y="2"></rect><rect width="1" height="1" fill="#000000" x="3" y="3"></rect><rect width="1" height="1" fill="#000000" x="3" y="4"></rect><rect width="1" height="1" fill="#000000" x="3" y="6"></rect><rect width="1" height="1" fill="#000000" x="3" y="9" opacity="1"></rect><rect width="1" height="1" fill="#000000" x="3" y="10" opacity="1"></rect><rect width="1" height="1" fill="#000000" x="3" y="12" opacity="1"></rect><rect width="1" height="1" fill="#000000" x="3" y="14"></rect><rect width="1" height="1" fill="#000000" x="3" y="16"></rect><rect width="1" height="1" fill="#000000" x="3" y="17"></rect><rect width="1" height="1" fill="#000000" x="3" y="18"></rect><rect width="1" height="1" fill="#000000" x="3" y="20"></rect><rect width="1" height="1" fill="#000000" x="4" y="0"></rect><rect width="1" height="1" fill="#000000" x="4" y="2"></rect><rect width="1" height="1" fill="#000000" x="4" y="3"></rect><rect width="1" height="1" fill="#000000" x="4" y="4"></rect><rect width="1" height="1" fill="#000000" x="4" y="6"></rect><rect width="1" height="1" fill="#000000" x="4" y="9" opacity="1"></rect><rect width="1" height="1" fill="#000000" x="4" y="10" opacity="1"></rect><rect width="1" height="1" fill="#000000" x="4" y="12" opacity="1"></rect><rect width="1" height="1" fill="#000000" x="4" y="14"></rect><rect width="1" height="1" fill="#000000" x="4" y="16"></rect><rect width="1" height="1" fill="#000000" x="4" y="17"></rect><rect width="1" height="1" fill="#000000" x="4" y="18"></rect><rect width="1" height="1" fill="#000000" x="4" y="20"></rect><rect width="1" height="1" fill="#000000" x="5" y="0"></rect><rect width="1" height="1" fill="#000000" x="5" y="6"></rect><rect opacity="1" width="1" height="1" fill="#000000" x="5" y="8"></rect><rect opacity="1" width="1" height="1" fill="#000000" x="5" y="11"></rect><rect opacity="1" width="1" height="1" fill="#000000" x="5" y="12"></rect><rect width="1" height="1" fill="#000000" x="5" y="14"></rect><rect width="1" height="1" fill="#000000" x="5" y="20"></rect><rect width="1" height="1" fill="#000000" x="6" y="0"></rect><rect width="1" height="1" fill="#000000" x="6" y="1"></rect><rect width="1" height="1" fill="#000000" x="6" y="2"></rect><rect width="1" height="1" fill="#000000" x="6" y="3"></rect><rect width="1" height="1" fill="#000000" x="6" y="4"></rect><rect width="1" height="1" fill="#000000" x="6" y="5"></rect><rect width="1" height="1" fill="#000000" x="6" y="6"></rect><rect opacity="1" width="1" height="1" fill="#000000" x="6" y="8"></rect><rect width="1" height="1" fill="#000000" x="6" y="10" opacity="1"></rect><rect width="1" height="1" fill="#000000" x="6" y="12" opacity="1"></rect><rect width="1" height="1" fill="#000000" x="6" y="14"></rect><rect width="1" height="1" fill="#000000" x="6" y="15"></rect><rect width="1" height="1" fill="#000000" x="6" y="16"></rect><rect width="1" height="1" fill="#000000" x="6" y="17"></rect><rect width="1" height="1" fill="#000000" x="6" y="18"></rect><rect width="1" height="1" fill="#000000" x="6" y="19"></rect><rect width="1" height="1" fill="#000000" x="6" y="20"></rect><rect opacity="1" width="1" height="1" fill="#000000" x="7" y="10"></rect><rect opacity="1" width="1" height="1" fill="#000000" x="7" y="11"></rect><rect opacity="1" width="1" height="1" fill="#000000" x="7" y="12"></rect><rect opacity="1" width="1" height="1" fill="#000000" x="8" y="0"></rect><rect opacity="1" width="1" height="1" fill="#000000" x="8" y="3"></rect><rect width="1" height="1" fill="#000000" x="8" y="5" opacity="1"></rect><rect width="1" height="1" fill="#000000" x="8" y="6" opacity="1"></rect><rect width="1" height="1" fill="#000000" x="8" y="8" opacity="1"></rect><rect width="1" height="1" fill="#000000" x="8" y="9" opacity="1"></rect><rect width="1" height="1" fill="#000000" x="8" y="10" opacity="1"></rect><rect width="1" height="1" fill="#000000" x="8" y="13" opacity="1"></rect><rect width="1" height="1" fill="#000000" x="8" y="15" opacity="1"></rect><rect opacity="1" width="1" height="1" fill="#000000" x="9" y="0"></rect><rect opacity="1" width="1" height="1" fill="#000000" x="9" y="1"></rect><rect opacity="1" width="1" height="1" fill="#000000" x="9" y="2"></rect><rect opacity="1" width="1" height="1" fill="#000000" x="9" y="3"></rect><rect opacity="1" width="1" height="1" fill="#000000" x="9" y="7"></rect><rect opacity="1" width="1" height="1" fill="#000000" x="9" y="15"></rect><rect opacity="1" width="1" height="1" fill="#000000" x="9" y="16"></rect><rect opacity="1" width="1" height="1" fill="#000000" x="9" y="17"></rect><rect opacity="1" width="1" height="1" fill="#000000" x="9" y="18"></rect><rect opacity="1" width="1" height="1" fill="#000000" x="9" y="19"></rect><rect opacity="1" width="1" height="1" fill="#000000" x="9" y="20"></rect><rect opacity="1" width="1" height="1" fill="#000000" x="10" y="0"></rect><rect opacity="1" width="1" height="1" fill="#000000" x="10" y="1"></rect><rect opacity="1" width="1" height="1" fill="#000000" x="10" y="2"></rect><rect opacity="1" width="1" height="1" fill="#000000" x="10" y="4"></rect><rect opacity="1" width="1" height="1" fill="#000000" x="10" y="6"></rect><rect opacity="1" width="1" height="1" fill="#000000" x="10" y="8"></rect><rect opacity="1" width="1" height="1" fill="#000000" x="10" y="9"></rect><rect opacity="1" width="1" height="1" fill="#000000" x="10" y="10"></rect><rect opacity="1" width="1" height="1" fill="#000000" x="10" y="12"></rect><rect opacity="1" width="1" height="1" fill="#000000" x="10" y="13"></rect><rect opacity="1" width="1" height="1" fill="#000000" x="10" y="14"></rect><rect opacity="1" width="1" height="1" fill="#000000" x="10" y="15"></rect><rect opacity="1" width="1" height="1" fill="#000000" x="10" y="17"></rect><rect opacity="1" width="1" height="1" fill="#000000" x="10" y="18"></rect><rect opacity="1" width="1" height="1" fill="#000000" x="10" y="20"></rect><rect opacity="1" width="1" height="1" fill="#000000" x="11" y="0"></rect><rect opacity="1" width="1" height="1" fill="#000000" x="11" y="1"></rect><rect opacity="1" width="1" height="1" fill="#000000" x="11" y="3"></rect><rect opacity="1" width="1" height="1" fill="#000000" x="11" y="5"></rect><rect opacity="1" width="1" height="1" fill="#000000" x="11" y="11"></rect><rect opacity="1" width="1" height="1" fill="#000000" x="11" y="14"></rect><rect opacity="1" width="1" height="1" fill="#000000" x="11" y="15"></rect><rect opacity="1" width="1" height="1" fill="#000000" x="11" y="16"></rect><rect opacity="1" width="1" height="1" fill="#000000" x="11" y="17"></rect><rect opacity="1" width="1" height="1" fill="#000000" x="12" y="5"></rect><rect opacity="1" width="1" height="1" fill="#000000" x="12" y="6"></rect><rect opacity="1" width="1" height="1" fill="#000000" x="12" y="7"></rect><rect opacity="1" width="1" height="1" fill="#000000" x="12" y="8"></rect><rect opacity="1" width="1" height="1" fill="#000000" x="12" y="12"></rect><rect opacity="1" width="1" height="1" fill="#000000" x="12" y="15"></rect><rect opacity="1" width="1" height="1" fill="#000000" x="12" y="17"></rect><rect opacity="1" width="1" height="1" fill="#000000" x="12" y="19"></rect><rect opacity="1" width="1" height="1" fill="#000000" x="12" y="20"></rect><rect opacity="1" width="1" height="1" fill="#000000" x="13" y="8"></rect><rect opacity="1" width="1" height="1" fill="#000000" x="13" y="10"></rect><rect opacity="1" width="1" height="1" fill="#000000" x="13" y="11"></rect><rect opacity="1" width="1" height="1" fill="#000000" x="13" y="15"></rect><rect opacity="1" width="1" height="1" fill="#000000" x="13" y="19"></rect><rect opacity="1" width="1" height="1" fill="#000000" x="13" y="20"></rect><rect width="1" height="1" fill="#000000" x="14" y="0"></rect><rect width="1" height="1" fill="#000000" x="14" y="1"></rect><rect width="1" height="1" fill="#000000" x="14" y="2"></rect><rect width="1" height="1" fill="#000000" x="14" y="3"></rect><rect width="1" height="1" fill="#000000" x="14" y="4"></rect><rect width="1" height="1" fill="#000000" x="14" y="5"></rect><rect width="1" height="1" fill="#000000" x="14" y="6"></rect><rect opacity="1" width="1" height="1" fill="#000000" x="14" y="13"></rect><rect opacity="1" width="1" height="1" fill="#000000" x="14" y="16"></rect><rect opacity="1" width="1" height="1" fill="#000000" x="14" y="17"></rect><rect opacity="1" width="1" height="1" fill="#000000" x="14" y="18"></rect><rect opacity="1" width="1" height="1" fill="#000000" x="14" y="19"></rect><rect width="1" height="1" fill="#000000" x="15" y="0"></rect><rect width="1" height="1" fill="#000000" x="15" y="6"></rect><rect opacity="1" width="1" height="1" fill="#000000" x="15" y="8"></rect><rect opacity="1" width="1" height="1" fill="#000000" x="15" y="9"></rect><rect opacity="1" width="1" height="1" fill="#000000" x="15" y="11"></rect><rect opacity="1" width="1" height="1" fill="#000000" x="15" y="12"></rect><rect opacity="1" width="1" height="1" fill="#000000" x="15" y="15"></rect><rect opacity="1" width="1" height="1" fill="#000000" x="15" y="20"></rect><rect width="1" height="1" fill="#000000" x="16" y="0"></rect><rect width="1" height="1" fill="#000000" x="16" y="2"></rect><rect width="1" height="1" fill="#000000" x="16" y="3"></rect><rect width="1" height="1" fill="#000000" x="16" y="4"></rect><rect width="1" height="1" fill="#000000" x="16" y="6"></rect><rect opacity="1" width="1" height="1" fill="#000000" x="16" y="9"></rect><rect opacity="1" width="1" height="1" fill="#000000" x="16" y="10"></rect><rect opacity="1" width="1" height="1" fill="#000000" x="16" y="11"></rect><rect opacity="1" width="1" height="1" fill="#000000" x="16" y="15"></rect><rect opacity="1" width="1" height="1" fill="#000000" x="16" y="16"></rect><rect opacity="1" width="1" height="1" fill="#000000" x="16" y="19"></rect><rect width="1" height="1" fill="#000000" x="17" y="0"></rect><rect width="1" height="1" fill="#000000" x="17" y="2"></rect><rect width="1" height="1" fill="#000000" x="17" y="3"></rect><rect width="1" height="1" fill="#000000" x="17" y="4"></rect><rect width="1" height="1" fill="#000000" x="17" y="6"></rect><rect opacity="1" width="1" height="1" fill="#000000" x="17" y="8"></rect><rect opacity="1" width="1" height="1" fill="#000000" x="17" y="14"></rect><rect opacity="1" width="1" height="1" fill="#000000" x="17" y="15"></rect><rect opacity="1" width="1" height="1" fill="#000000" x="17" y="16"></rect><rect opacity="1" width="1" height="1" fill="#000000" x="17" y="17"></rect><rect opacity="1" width="1" height="1" fill="#000000" x="17" y="19"></rect><rect opacity="1" width="1" height="1" fill="#000000" x="17" y="20"></rect><rect width="1" height="1" fill="#000000" x="18" y="0"></rect><rect width="1" height="1" fill="#000000" x="18" y="2"></rect><rect width="1" height="1" fill="#000000" x="18" y="3"></rect><rect width="1" height="1" fill="#000000" x="18" y="4"></rect><rect width="1" height="1" fill="#000000" x="18" y="6"></rect><rect opacity="1" width="1" height="1" fill="#000000" x="18" y="9"></rect><rect opacity="1" width="1" height="1" fill="#000000" x="18" y="10"></rect><rect opacity="1" width="1" height="1" fill="#000000" x="18" y="12"></rect><rect opacity="1" width="1" height="1" fill="#000000" x="18" y="14"></rect><rect opacity="1" width="1" height="1" fill="#000000" x="18" y="15"></rect><rect opacity="1" width="1" height="1" fill="#000000" x="18" y="16"></rect><rect opacity="1" width="1" height="1" fill="#000000" x="18" y="20"></rect><rect width="1" height="1" fill="#000000" x="19" y="0"></rect><rect width="1" height="1" fill="#000000" x="19" y="6"></rect><rect opacity="1" width="1" height="1" fill="#000000" x="19" y="13"></rect><rect opacity="1" width="1" height="1" fill="#000000" x="19" y="16"></rect><rect width="1" height="1" fill="#000000" x="20" y="0"></rect><rect width="1" height="1" fill="#000000" x="20" y="1"></rect><rect width="1" height="1" fill="#000000" x="20" y="2"></rect><rect width="1" height="1" fill="#000000" x="20" y="3"></rect><rect width="1" height="1" fill="#000000" x="20" y="4"></rect><rect width="1" height="1" fill="#000000" x="20" y="5"></rect><rect width="1" height="1" fill="#000000" x="20" y="6"></rect><rect opacity="1" width="1" height="1" fill="#000000" x="20" y="8"></rect><rect opacity="1" width="1" height="1" fill="#000000" x="20" y="9"></rect><rect opacity="1" width="1" height="1" fill="#000000" x="20" y="12"></rect><rect opacity="1" width="1" height="1" fill="#000000" x="20" y="14"></rect><rect opacity="1" width="1" height="1" fill="#000000" x="20" y="15"></rect><rect opacity="1" width="1" height="1" fill="#000000" x="20" y="16"></rect><rect opacity="1" width="1" height="1" fill="#000000" x="20" y="19"></rect></svg>
	<svg width="210px" height="140px" x="170px" y="100px" viewBox="0 0 332 140" xmlns="http://www.w3.org/2000/svg" version="1.1" style="transform: translate(0px); background: rgb(255, 255, 255) none repeat scroll 0% 0%;"><g transform="translate(10, 10)" style="fill:#000000;"><rect x="0" y="0" width="4" height="100"></rect><rect x="6" y="0" width="2" height="100"></rect><rect x="12" y="0" width="2" height="100"></rect><rect x="22" y="0" width="8" height="100"></rect><rect x="34" y="0" width="2" height="100"></rect><rect x="38" y="0" width="2" height="100"></rect><rect x="44" y="0" width="2" height="100"></rect><rect x="54" y="0" width="4" height="100"></rect><rect x="60" y="0" width="2" height="100"></rect><rect x="66" y="0" width="2" height="100"></rect><rect x="72" y="0" width="8" height="100"></rect><rect x="82" y="0" width="2" height="100"></rect><rect x="88" y="0" width="2" height="100"></rect><rect x="92" y="0" width="4" height="100"></rect><rect x="104" y="0" width="2" height="100"></rect><rect x="110" y="0" width="2" height="100"></rect><rect x="116" y="0" width="8" height="100"></rect><rect x="128" y="0" width="2" height="100"></rect><rect x="132" y="0" width="4" height="100"></rect><rect x="140" y="0" width="2" height="100"></rect><rect x="144" y="0" width="2" height="100"></rect><rect x="154" y="0" width="2" height="100"></rect><rect x="160" y="0" width="4" height="100"></rect><rect x="168" y="0" width="6" height="100"></rect><rect x="176" y="0" width="2" height="100"></rect><rect x="186" y="0" width="2" height="100"></rect><rect x="192" y="0" width="4" height="100"></rect><rect x="198" y="0" width="2" height="100"></rect><rect x="204" y="0" width="2" height="100"></rect><rect x="208" y="0" width="4" height="100"></rect><rect x="220" y="0" width="2" height="100"></rect><rect x="226" y="0" width="8" height="100"></rect><rect x="236" y="0" width="2" height="100"></rect><rect x="242" y="0" width="2" height="100"></rect><rect x="246" y="0" width="4" height="100"></rect><rect x="254" y="0" width="2" height="100"></rect><rect x="264" y="0" width="2" height="100"></rect><rect x="272" y="0" width="4" height="100"></rect><rect x="278" y="0" width="6" height="100"></rect><rect x="286" y="0" width="4" height="100"></rect><rect x="296" y="0" width="6" height="100"></rect><rect x="304" y="0" width="2" height="100"></rect><rect x="308" y="0" width="4" height="100"></rect><text style="font: 20px monospace" text-anchor="middle" x="156" y="120">witful.date</text></g></svg>
</svg>
